<svg width="39" height="52" viewBox="0 0 39 52" fill="none" xmlns="http://www.w3.org/2000/svg">
<path fill-rule="evenodd" clip-rule="evenodd" d="M0.00275652 16.9147C0.000923119 16.8467 0 16.7774 0 16.7068C2.40161 4.38554 12.2169 0 19.2129 0C29.3625 0 38.008 7.51807 38.6345 16.9157V51.3735L38.3213 52H37.4859L34.5623 48.7631L31.1165 44.2731L28.1928 48.4498L25.3735 51.7912H24.9558L22.4498 48.8675L19.2129 44.0643L16.1847 48.3454L13.261 51.7912H12.6345L10.0241 48.3454L7.30924 44.0643L0.939759 52H0.208835L0 51.2691V16.9157L0.00275652 16.9147ZM15.0361 19.4218H8.35339V24.8515H11.9036V27.7752H15.0361V19.4218ZM19.2129 19.4218H25.8956V27.7752H22.7631V24.8515H19.2129V19.4218Z" fill="#292929"/>
</svg>
