<svg width="23" height="31" viewBox="0 0 23 31" fill="none" xmlns="http://www.w3.org/2000/svg">
<path fill-rule="evenodd" clip-rule="evenodd" d="M22.5114 9.88977L22.5116 9.85636C22.1465 4.38061 17.1089 0 11.195 0C7.11861 0 1.39948 2.55535 0.000122479 9.73468C0.000122479 9.77577 0.000659986 9.81613 0.00172753 9.85578L0 9.85636V29.8733L0.121683 30.2992H0.547576L4.25892 25.6752L5.84081 28.1697L7.36185 30.1775H7.7269L9.43047 28.1697L11.1949 25.6752L13.081 28.4739L14.5412 30.1775H14.7845L16.4273 28.2306L18.1308 25.7969L20.1386 28.4131L21.8422 30.2992H22.3289L22.5114 29.9341V9.88977ZM8.76111 11.3166H4.86724V14.4804H6.93586V16.1839H8.76111V11.3166ZM11.1949 11.3166H15.0887V16.1839H13.2635V14.4804H11.1949V11.3166Z" fill="#FF5252"/>
</svg>
