<svg width="86" height="81" viewBox="0 0 86 81" fill="none" xmlns="http://www.w3.org/2000/svg">
<path fill-rule="evenodd" clip-rule="evenodd" d="M17.5019 16.9915H25.828V8.83558H17.5019V0H25.828V7.81609H34.324V16.9915H50.8064V8.83558H58.7927V0H67.7985V8.49575L59.9821 8.83558V16.9915H67.7985V25.4872H76.4645V34.1529H85.1304V71.7041H76.4645V54.8825H71.8766V71.7041H63.7204V80.3698H46.7283V71.7041H62.7009V62.8685H22.4296V71.7041H38.5721V80.3698L20.9003 79.86V71.7041H13.2538V54.8825H8.49605V71.7041H0V34.1529H8.49605L8.83589 25.8271H17.5019V16.9915ZM50.6365 40.0999H59.4724V48.9355H50.6365V40.0999ZM34.3241 40.0999H25.4882V48.9355H34.3241V40.0999Z" fill="#292929"/>
</svg>
