<svg width="33" height="31" viewBox="0 0 33 31" fill="none" xmlns="http://www.w3.org/2000/svg">
<path fill-rule="evenodd" clip-rule="evenodd" d="M6.58855 6.39665H9.72291V3.32626H6.58855V0H9.72291V2.94246H12.9212V6.39665H19.126V3.32626H22.1324V0H25.5226V3.19832L22.5802 3.32626V6.39665H25.5226V9.59497H28.7849V12.8573H32.0472V26.9939H28.7849V20.6612H27.0578V26.9939H23.9874V30.2562H17.5908V26.9939H23.6036V23.6676H8.44358V26.9939H14.5204V30.2562L7.86788 30.0643V26.9939H4.98939V20.6612H3.19832V26.9939H0V12.8573H3.19832L3.32626 9.72291H6.58855V6.39665ZM19.0621 15.0961H22.3883V18.4224H19.0621V15.0961ZM12.9212 15.0961H9.59491V18.4224H12.9212V15.0961Z" fill="#FF5252"/>
</svg>
