<svg width="46" height="52" viewBox="0 0 46 52" fill="none" xmlns="http://www.w3.org/2000/svg">
<path fill-rule="evenodd" clip-rule="evenodd" d="M45.8885 11.1922L30.4883 25.864L45.8885 40.6399C46.4435 41.7846 45.2018 45.1976 35.7951 49.6928C26.3885 54.188 16.198 50.5252 12.2786 48.132C9.53843 46.5017 4.17475 41.7118 2.08111 36.4777C0.0242672 31.3356 0.0114833 26.5575 0.00492364 24.1058C0.00418254 23.8288 0.00352089 23.5815 0 23.3667C0.173426 20.0022 2.26841 11.8582 9.26095 6.19753C16.2535 0.5369 23.69 -0.253923 26.5342 0.0582442C29.8293 0.0582383 37.7306 1.43176 43.8074 7.34212C45.2662 8.76097 45.7955 9.25937 45.9355 9.85003C46.0177 10.1971 45.9656 10.576 45.8885 11.1922ZM22.476 19.3085C24.7173 19.3085 26.5342 17.4916 26.5342 15.2503C26.5342 13.0091 24.7173 11.1922 22.476 11.1922C20.2348 11.1922 18.4179 13.0091 18.4179 15.2503C18.4179 17.4916 20.2348 19.3085 22.476 19.3085Z" fill="#292929"/>
</svg>
