<svg width="158" height="49" viewBox="0 0 158 49" fill="none" xmlns="http://www.w3.org/2000/svg">
<path d="M8.50938 0.535942C10.8774 0.535942 12.9467 1.00528 14.7174 1.94394C16.4881 2.88261 17.8534 4.20528 18.8134 5.91194C19.7947 7.59728 20.2854 9.54928 20.2854 11.7679C20.2854 13.9653 19.7947 15.9173 18.8134 17.6239C17.8534 19.3306 16.4774 20.6533 14.6854 21.5919C12.9147 22.5306 10.8561 22.9999 8.50938 22.9999H0.0933838V0.535942H8.50938ZM8.15738 18.2639C10.2267 18.2639 11.8374 17.6986 12.9894 16.5679C14.1414 15.4373 14.7174 13.8373 14.7174 11.7679C14.7174 9.69861 14.1414 8.08794 12.9894 6.93594C11.8374 5.78394 10.2267 5.20794 8.15738 5.20794H5.56538V18.2639H8.15738Z" fill="#FF0202"/>
<path d="M28.7194 0.535942V13.9759C28.7194 15.3199 29.0501 16.3546 29.7114 17.0799C30.3727 17.8053 31.3434 18.1679 32.6234 18.1679C33.9034 18.1679 34.8847 17.8053 35.5674 17.0799C36.2501 16.3546 36.5914 15.3199 36.5914 13.9759V0.535942H42.0634V13.9439C42.0634 15.9493 41.6367 17.6453 40.7834 19.0319C39.9301 20.4186 38.7781 21.4639 37.3274 22.1679C35.8981 22.8719 34.2981 23.2239 32.5274 23.2239C30.7567 23.2239 29.1674 22.8826 27.7594 22.1999C26.3727 21.4959 25.2741 20.4506 24.4634 19.0639C23.6527 17.6559 23.2474 15.9493 23.2474 13.9439V0.535942H28.7194Z" fill="#FF0202"/>
<path d="M66.0019 22.9999H60.5299L51.3779 9.14394V22.9999H45.9059V0.535942H51.3779L60.5299 14.4559V0.535942H66.0019V22.9999Z" fill="#FF0202"/>
<path d="M84.8804 7.63994C84.4751 6.89327 83.8884 6.32794 83.1204 5.94394C82.3737 5.53861 81.4884 5.33594 80.4644 5.33594C78.6937 5.33594 77.275 5.92261 76.2084 7.09594C75.1417 8.24794 74.6084 9.79461 74.6084 11.7359C74.6084 13.8053 75.1631 15.4266 76.2724 16.5999C77.4031 17.7519 78.9497 18.3279 80.9124 18.3279C82.2564 18.3279 83.387 17.9866 84.3044 17.3039C85.243 16.6213 85.9257 15.6399 86.3524 14.3599H79.4084V10.3279H91.3124V15.4159C90.9071 16.7813 90.2137 18.0506 89.2324 19.2239C88.2724 20.3973 87.0457 21.3466 85.5524 22.0719C84.0591 22.7973 82.3737 23.1599 80.4964 23.1599C78.2777 23.1599 76.2937 22.6799 74.5444 21.7199C72.8164 20.7386 71.4617 19.3839 70.4804 17.6559C69.5204 15.9279 69.0404 13.9546 69.0404 11.7359C69.0404 9.51728 69.5204 7.54394 70.4804 5.81594C71.4617 4.06661 72.8164 2.71194 74.5444 1.75194C76.2724 0.770608 78.2457 0.279942 80.4644 0.279942C83.1524 0.279942 85.4137 0.930608 87.2484 2.23194C89.1044 3.53328 90.331 5.33594 90.9284 7.63994H84.8804Z" fill="#FF0202"/>
<path d="M99.8154 4.91994V9.46394H107.143V13.6879H99.8154V18.6159H108.103V22.9999H94.3434V0.535942H108.103V4.91994H99.8154Z" fill="#FF0202"/>
<path d="M122.28 23.2239C120.168 23.2239 118.227 22.7333 116.456 21.7519C114.707 20.7706 113.309 19.4053 112.264 17.6559C111.24 15.8853 110.728 13.9013 110.728 11.7039C110.728 9.50661 111.24 7.53328 112.264 5.78394C113.309 4.03461 114.707 2.66928 116.456 1.68794C118.227 0.706609 120.168 0.215942 122.28 0.215942C124.392 0.215942 126.323 0.706609 128.072 1.68794C129.843 2.66928 131.229 4.03461 132.232 5.78394C133.256 7.53328 133.768 9.50661 133.768 11.7039C133.768 13.9013 133.256 15.8853 132.232 17.6559C131.208 19.4053 129.821 20.7706 128.072 21.7519C126.323 22.7333 124.392 23.2239 122.28 23.2239ZM122.28 18.2319C124.072 18.2319 125.501 17.6346 126.568 16.4399C127.656 15.2453 128.2 13.6666 128.2 11.7039C128.2 9.71994 127.656 8.14128 126.568 6.96794C125.501 5.77327 124.072 5.17594 122.28 5.17594C120.467 5.17594 119.016 5.76261 117.928 6.93594C116.861 8.10928 116.328 9.69861 116.328 11.7039C116.328 13.6879 116.861 15.2773 117.928 16.4719C119.016 17.6453 120.467 18.2319 122.28 18.2319Z" fill="#FF0202"/>
<path d="M156.908 22.9999H151.436L142.284 9.14394V22.9999H136.812V0.535942H142.284L151.436 14.4559V0.535942H156.908V22.9999Z" fill="#FF0202"/>
<path d="M65.8775 26.5359V48.9999H60.4055V39.7519H51.8935V48.9999H46.4215V26.5359H51.8935V35.3359H60.4055V26.5359H65.8775Z" fill="#FF0202"/>
<path d="M75.2998 30.9199V35.4639H82.6278V39.6879H75.2998V44.6159H83.5878V48.9999H69.8278V26.5359H83.5878V30.9199H75.2998Z" fill="#FF0202"/>
<path d="M92.6123 44.7759H99.7803V48.9999H87.1403V26.5359H92.6123V44.7759Z" fill="#FF0202"/>
<path d="M119.51 33.7679C119.51 35.0693 119.212 36.2639 118.614 37.3519C118.017 38.4186 117.1 39.2826 115.862 39.9439C114.625 40.6053 113.089 40.9359 111.254 40.9359H107.862V48.9999H102.39V26.5359H111.254C113.046 26.5359 114.561 26.8453 115.798 27.4639C117.036 28.0826 117.964 28.9359 118.582 30.0239C119.201 31.1119 119.51 32.3599 119.51 33.7679ZM110.838 36.5839C111.884 36.5839 112.662 36.3386 113.174 35.8479C113.686 35.3573 113.942 34.6639 113.942 33.7679C113.942 32.8719 113.686 32.1786 113.174 31.6879C112.662 31.1973 111.884 30.9519 110.838 30.9519H107.862V36.5839H110.838Z" fill="#FF0202"/>
<path d="M127.831 30.9199V35.4639H135.159V39.6879H127.831V44.6159H136.119V48.9999H122.359V26.5359H136.119V30.9199H127.831Z" fill="#FF0202"/>
<path d="M151.128 48.9999L146.456 40.5199H145.144V48.9999H139.672V26.5359H148.856C150.626 26.5359 152.13 26.8453 153.368 27.4639C154.626 28.0826 155.565 28.9359 156.184 30.0239C156.802 31.0906 157.112 32.2853 157.112 33.6079C157.112 35.1013 156.685 36.4346 155.832 37.6079C155 38.7813 153.762 39.6133 152.12 40.1039L157.304 48.9999H151.128ZM145.144 36.6479H148.536C149.538 36.6479 150.285 36.4026 150.776 35.9119C151.288 35.4213 151.544 34.7279 151.544 33.8319C151.544 32.9786 151.288 32.3066 150.776 31.8159C150.285 31.3253 149.538 31.0799 148.536 31.0799H145.144V36.6479Z" fill="#FF0202"/>
</svg>
